<svg width="86" height="39" viewBox="0 0 86 39" fill="none" xmlns="http://www.w3.org/2000/svg">
<path d="M65.0997 14.2647C65.4973 5.08961 54.3955 -1.74583 44.1653 0.395018C33.935 2.53587 28.8735 11.4816 27.6042 14.2494H29.3016C31.5495 10.457 33.8892 7.521 37.7121 6.41999C40.1894 5.73186 42.1314 5.88475 46.8872 8.54553C49.0892 9.78416 54.0744 13.4695 59.4265 14.2035C61.314 14.367 63.2122 14.367 65.0997 14.2035" fill="white"/>
<path d="M0.996325 32.0033C-0.272895 30.4741 -0.318778 27.6146 0.797524 22.186C2.58666 13.5002 5.18629 10.5795 11.0889 10.5795C11.9793 10.4809 12.8804 10.5791 13.7286 10.8671C14.5768 11.1552 15.3513 11.626 15.9976 12.2463C16.6179 13.0901 16.931 14.1208 16.8845 15.167C16.879 15.9126 16.797 16.6555 16.6399 17.3843C16.6399 17.3843 16.4869 18.1336 16.3952 18.5465H11.4253C11.4253 18.5465 11.7923 16.1763 11.7923 15.6564C11.8554 15.2423 11.7687 14.8194 11.5477 14.4636C11.4182 14.2866 11.2474 14.1439 11.0502 14.0479C10.853 13.952 10.6353 13.9057 10.4161 13.9131C8.22935 13.9131 7.51064 15.9928 6.25671 22.0483C5.27803 26.7276 4.94162 28.8838 5.69092 29.8013C5.85208 29.9874 6.0558 30.1319 6.28476 30.2224C6.51372 30.3129 6.76117 30.3468 7.00604 30.3212C8.73401 30.3212 9.40683 28.792 10.2785 24.7091H15.2789C15.1871 25.1984 15.0189 25.9783 15.0189 25.9783C13.9638 31.0705 10.9819 33.6243 6.16496 33.6243C3.55006 33.6243 1.89854 33.1043 0.996325 31.9727" fill="white"/>
<path d="M24.8369 24.495C24.7558 24.5669 24.6626 24.6238 24.5617 24.6632C24.2558 24.7856 23.583 24.8926 23.1701 24.9996C22.7992 25.0804 22.436 25.1929 22.0844 25.3361C21.5816 25.5486 21.1448 25.8919 20.8195 26.3302C20.4941 26.7685 20.292 27.2858 20.2341 27.8286C20.1369 28.1378 20.1112 28.4649 20.1589 28.7854C20.2066 29.106 20.3264 29.4115 20.5093 29.6789C20.6429 29.8347 20.8099 29.9582 20.9979 30.0403C21.1859 30.1224 21.39 30.1609 21.595 30.153C23.4759 30.153 24.057 28.3638 24.3323 27.0946L24.8522 24.5715L24.8369 24.495ZM24.8369 15.7787C27.3906 15.7787 28.9504 16.2375 29.7303 17.1856C30.182 17.7943 30.4138 18.5382 30.3878 19.2958C30.3806 19.8459 30.3192 20.394 30.2043 20.932L28.507 29.4496C28.2794 30.3711 28.1512 31.3144 28.1247 32.2632C28.1084 32.4821 28.1084 32.7019 28.1247 32.9208H23.3383C23.3308 32.8701 23.3308 32.8186 23.3383 32.7679C23.3383 32.4162 23.3383 32.0492 23.3383 31.6669V30.9634H23.1854L23.0937 31.1317C22.5723 31.8308 21.8936 32.3973 21.1125 32.7852C20.3315 33.1731 19.4699 33.3714 18.5979 33.3643C18.0574 33.4183 17.5117 33.3531 16.9992 33.1735C16.4866 32.9938 16.0197 32.704 15.6312 32.3244C15.2967 31.7896 15.0837 31.1878 15.007 30.5616C14.9304 29.9354 14.9921 29.3 15.1878 28.7003C15.8453 25.5349 17.2828 24.2045 20.8916 23.394L23.2925 22.8435C23.868 22.7947 24.4112 22.5566 24.8372 22.1666C25.2632 21.7765 25.5481 21.2564 25.6474 20.6873C25.7259 20.4315 25.7461 20.1614 25.7064 19.8967C25.6667 19.6321 25.5682 19.3797 25.418 19.1582C25.26 18.9814 25.0631 18.8438 24.8429 18.7563C24.6226 18.6687 24.385 18.6335 24.1488 18.6536C22.8643 18.6536 22.1762 19.3264 21.7633 20.9779H17.4815C18.6284 16.528 22.5737 15.8399 24.8828 15.8399" fill="white"/>
<path d="M42.7583 15.7787C41.7927 15.8417 40.8606 16.1574 40.0554 16.6942C39.2502 17.2309 38.6003 17.9699 38.1708 18.837L38.0638 19.0358H37.6967C37.6967 19.0358 38.1402 16.895 38.2625 16.2833H33.0328C33.05 16.5022 33.05 16.722 33.0328 16.9409C33.0179 17.573 32.9462 18.2025 32.8186 18.8217C31.8858 23.4093 30.0356 32.3244 29.8979 32.9208H34.9595L36.8557 23.7457C36.9108 23.2472 37.0639 22.7646 37.306 22.3254C37.5482 21.8862 37.8748 21.4993 38.267 21.1867C38.6591 20.8741 39.1092 20.642 39.5913 20.5038C40.0734 20.3657 40.578 20.3241 41.0763 20.3815C41.4579 20.3496 41.8415 20.3496 42.2231 20.3815C42.3302 19.8463 43.0336 16.4362 43.1712 15.794" fill="white"/>
<path d="M46.6741 24.3273C46.1695 26.8045 46.1848 27.7527 46.6741 28.3643C46.8147 28.5218 46.9904 28.6441 47.187 28.7211C47.3836 28.7981 47.5956 28.8278 47.8057 28.8078C49.2126 28.8078 49.916 27.9514 50.6347 24.4802C51.1394 21.9876 51.2005 20.4126 50.7112 19.8162C50.5784 19.6614 50.4107 19.5404 50.2219 19.4633C50.0331 19.3862 49.8286 19.3552 49.6255 19.3727C48.0963 19.3727 47.3776 20.9019 46.6589 24.3273H46.6741ZM42.0713 31.3768C41.0621 30.1382 40.8632 28.1808 41.5667 24.7096C43.0958 17.0637 45.9707 15.7792 48.4786 15.7792C48.8553 15.7345 49.2372 15.7648 49.6022 15.8684C49.9672 15.972 50.3081 16.1469 50.6052 16.3828C50.9023 16.6188 51.1497 16.9113 51.3333 17.2433C51.5168 17.5754 51.6328 17.9405 51.6746 18.3176V18.6387H52.011L52.5156 16.2379H57.1796C56.9961 17.0484 53.7084 32.8754 53.7084 32.8754C52.8826 36.8513 50.3289 38.8392 45.6496 38.8392C41.3067 38.8392 40.6644 36.2702 40.5727 35.4903C40.5409 35.0934 40.5409 34.6945 40.5727 34.2976H45.1602C45.128 34.6927 45.1855 35.0899 45.3285 35.4597C45.4329 35.6413 45.5889 35.7878 45.7768 35.8804C45.9648 35.9729 46.176 36.0075 46.3836 35.9796C47.347 35.9796 48.2492 35.7044 48.7079 33.5482L49.4725 29.8018H49.182L49.0749 29.9853C48.6093 30.7489 47.949 31.3751 47.1617 31.7997C46.3744 32.2242 45.4884 32.4318 44.5944 32.4013C44.1258 32.4347 43.6558 32.3596 43.2209 32.1819C42.786 32.0042 42.3978 31.7287 42.0866 31.3768" fill="white"/>
<path d="M64.6727 16.2375C64.4891 17.0327 61.3237 32.3398 61.2167 32.875H56.1704L59.6263 16.2375" fill="white"/>
<path d="M73.9234 10.6713C73.7552 11.497 69.4429 32.3397 69.3358 32.8749H64.2896C64.4578 32.0645 68.77 11.2218 68.8771 10.6713" fill="white"/>
<path d="M82.0282 10.6713C81.8446 11.497 77.5477 32.3397 77.4406 32.8749H72.3943C72.5625 32.0645 76.8748 11.2218 76.9818 10.6713" fill="white"/>
<path d="M83.6945 11.8183H84.0615C84.3062 11.8183 84.5814 11.8183 84.5814 11.5125C84.5814 11.2067 84.3673 11.1761 84.1685 11.1761H83.6945V11.8183ZM83.5569 11.0538H84.1838C84.5661 11.0538 84.719 11.2067 84.719 11.5125C84.719 11.8183 84.5355 11.9101 84.2909 11.956L84.7955 12.7206H84.6426L84.1379 11.956H83.6945V12.7206H83.5569V11.0538ZM82.8075 11.8795C82.8034 12.048 82.8333 12.2157 82.8955 12.3724C82.9576 12.5291 83.0507 12.6716 83.1692 12.7915C83.2877 12.9114 83.4291 13.0062 83.585 13.0702C83.741 13.1342 83.9082 13.1661 84.0768 13.164C84.3315 13.1671 84.5813 13.0943 84.7945 12.955C85.0078 12.8157 85.1748 12.6162 85.2744 12.3818C85.3739 12.1473 85.4016 11.8886 85.3537 11.6384C85.3059 11.3882 85.1848 11.1579 85.0058 10.9768C84.8268 10.7956 84.5979 10.6717 84.3483 10.6209C84.0988 10.5701 83.8397 10.5946 83.6041 10.6914C83.3685 10.7881 83.167 10.9528 83.0252 11.1643C82.8833 11.3759 82.8076 11.6248 82.8075 11.8795ZM85.4836 11.8795C85.4836 12.1578 85.4011 12.4297 85.2465 12.6611C85.092 12.8925 84.8722 13.0728 84.6151 13.1792C84.3581 13.2857 84.0752 13.3136 83.8023 13.2593C83.5294 13.205 83.2787 13.0711 83.082 12.8743C82.8852 12.6776 82.7512 12.4269 82.6969 12.154C82.6427 11.8811 82.6705 11.5982 82.777 11.3411C82.8835 11.0841 83.0638 10.8644 83.2952 10.7098C83.5265 10.5552 83.7985 10.4727 84.0768 10.4727C84.4499 10.4727 84.8078 10.6209 85.0716 10.8847C85.3354 11.1486 85.4836 11.5064 85.4836 11.8795Z" fill="white"/>
</svg>
